<?xml version="1.0" encoding="UTF-8"?>
<svg id="Layer_1" xmlns="http://www.w3.org/2000/svg" version="1.1" viewBox="0 0 1920 1080" preserveAspectRatio="xMidYMid slice">
  <!-- Generator: Adobe Illustrator 29.5.1, SVG Export Plug-In . SVG Version: 2.1.0 Build 141)  -->
  <defs>
    <style>
      .st0 {
        stroke: #ffffff;
      }

      .st0, .st1 {
        fill: none;
        stroke-miterlimit: 10;
      }

      .st1 {
        stroke: #a20024;
      }
    </style>
  </defs>
  <polyline class="st0" points="602.6 0 274.45 367.62 960 1080 1559.11 0 -123.51 770.82 1920 489.8 1606.24 214.02 1045.95 610.24 979.62 151.18 674.16 296.05 635.76 118.02 478.67 200.05 0 205.29"/>
  <polyline class="st0" points="1920 163.4 1554.64 8.05 1920 489.8"/>
  <line class="st0" x1="489.05" y1="194.64" x2="311.11"/>
  <polyline class="st0" points="0 330.96 274.45 367.62 0 702.75"/>
  <line class="st0" x1="1045.95" y1="610.24" x2="1909.95" y2="1080"/>
  <polyline class="st0" points="1920 659.11 1495.46 854.64 1539.91 1080 1707.73 970.05 1606.24 214.02 979.62 151.18 478.67 200.05 0 8.05"/>
  <polyline class="st0" points="1206.53 1080 1495.46 854.64 723.79 834.54 1193.61 167.44 969.15 -7.65"/>
  <line class="st0" x1="1129.28" y1="774.84" x2="466.45" y2="1080"/>
  <polyline class="st0" points="288.55 714.15 0 1080 532.86 829.36 960 1080"/>
  <polyline class="st0" points="1707.47 1080 1920 774.84 1430.86 557.07 1920 8.05 1730.16 516.85 1332.69 766.14 1362.85 958.07 1539.91 1080"/>
  <polyline class="st0" points="947.53 516.85 641.19 420.5 369.15 261.54 0 453.15"/>
  <polyline class="st0" points="267.47 1080 337.08 544.03 649.86 183.35"/>
  <polyline class="st0" points="73.53 805.25 0 908.71 560.85 723.73 947.53 280.17 1414.03 261.54 1582.79 536.17 1224.38 707.25 1271.11 845.12 1129.28 948.07 947.53 1080"/>
  <polyline class="st0" points="1362.85 958.07 1136.06 943.15 1101.8 1080"/>
  <polyline class="st0" points="976.63 845.12 1045.95 598.02 723.79 834.54"/>
  <polyline class="st1" points="1793 8.05 1166.38 397.29 1920 959.33 1143.69 1080 209.87 0"/>
  <path class="st1" d="M445.51-119.36"/>
  <polyline class="st0" points="1189.07 0 536.27 1080 0 516.85 674.16 296.05 466.45 1080 0 753.83"/>
  <polyline class="st0" points="1166.38 397.29 674.16 296.05 913.29 0 1456.13 1080 1920 544.03 1502.69 721.57 660.2 1080 1045.95 598.02 1641.15 845.12 1579.44 140.71 1920 248.93 1253.65 215.76 1382.82 451.4 791.39 544.03 623.55 800.49 550.24 927.42 373.95 584.05 250.02 472.35 115.62 763.84 0 982.02 -106.05 943.15"/>
  <polyline class="st0" points="0 65.65 508.93 345.87 250.02 472.35 698.81 565.48 1045.95 598.02 1269.73 951.94 1143.69 1080"/>
  <polyline class="st1" points="1332.69 8.05 1307.96 184.11 1090.75 353.07 1762.23 430.91 1920 330.96 1779.93 603.62 1920 625.95 1316.24 572.83 1332.69 766.14 1013.37 714.15 1269.73 951.94 797.87 927.42 553.73 702.75 836.65 330.96 592.13 0 979.62 151.18"/>
  <polyline class="st1" points="147.04 8.05 9.15 152.93 458.66 8.05 9.15 598.02 815.55 8.05 546.75 475.97 209.87 582.31 458.66 943.15 112.13 1088.49 1143.69 8.05 1554.64 97.32 1089.58 536.17 1909.95 1023.91"/>
  <polyline class="st1" points="1644.64 1067.55 1801.73 810.96 1841.87 536.17 1532.93 919.18 1150.67 987.25 1447.4 475.97 1702.24 389.2 1253.65 215.76 1649.87 -7.65"/>
  <polyline class="st1" points="0 261.54 529.29 0 174.96 248.93 445.51 598.02 0 802.24"/>
  <polyline class="st1" points="178.45 8.05 0 389.2 529.29 557.87 159.25 943.15 0 908.71 649.86 1080 1269.73 0 1920 589.29"/>
  <polyline class="st1" points="1833.15 8.05 1582.79 230.6 1920 313.51"/>
</svg>